<svg width="720" height="720" viewBox="0 0 720 720" fill="none" xmlns="http://www.w3.org/2000/svg">
<rect width="720" height="720" fill="#242322"/>
<path d="M231.147 381H203.211V378.792C210.315 378.024 210.891 377.16 210.795 367.56L210.603 330.312H210.219L188.619 380.616H186.795L166.731 331.368H166.443L165.195 356.424C164.811 364.584 164.811 369.576 165.195 372.648C165.579 377.256 167.499 378.216 173.931 378.792V381H151.467V378.792C157.131 378.312 158.955 376.2 159.627 372.84C160.203 369.768 160.971 364.2 161.739 353.064L163.083 335.496C163.947 323.592 163.275 321.672 155.019 320.904V318.696H173.547L192.651 361.8L211.947 318.696H229.995V320.904C222.411 321.672 221.931 322.632 222.123 331.656L222.987 367.56C223.179 377.16 223.563 377.928 231.147 378.792V381ZM284.351 365.064L286.559 365.64C285.983 369.576 284.063 378.024 283.295 381H235.487V378.792C243.647 378.024 244.607 377.544 244.607 369V330.792C244.607 321.864 243.647 321.48 237.023 320.904V318.696H280.895C280.991 320.424 281.471 326.856 281.951 332.712L279.551 333.096C278.687 329.64 277.247 326.376 275.231 324.552C273.407 322.728 270.815 321.96 265.055 321.96H260.735C257.471 321.96 256.991 322.248 256.991 325.32V347.016H263.711C272.063 347.016 273.407 346.44 274.751 339.816H277.055V358.152H274.751C273.407 351.432 272.159 350.856 263.711 350.856H256.991V368.328C256.991 373.224 257.375 375.912 259.199 376.776C260.927 377.544 263.999 377.736 267.647 377.736C273.215 377.736 276.575 377.064 278.783 374.568C280.799 372.264 282.623 369.192 284.351 365.064ZM336.429 364.584L338.733 365.256C337.965 368.904 335.949 378.408 335.277 381H289.197V378.792C297.549 378.12 298.605 377.448 298.605 368.904V330.792C298.605 322.152 297.645 321.576 290.445 320.904V318.696H319.053V320.904C311.853 321.576 310.989 322.152 310.989 330.792V369.768C310.989 374.568 311.373 376.104 313.293 376.968C314.829 377.64 317.517 377.736 320.589 377.736C325.389 377.736 328.749 376.968 330.957 374.472C332.877 372.36 334.605 369.288 336.429 364.584ZM370.236 381H342.108V378.792C349.02 378.12 349.98 377.448 349.98 368.904V330.792C349.98 322.248 349.116 321.576 342.108 320.904V318.696H370.236V320.904C363.228 321.576 362.364 322.248 362.364 330.792V368.904C362.364 377.448 363.228 378.12 370.236 378.792V381ZM409.273 317.352C426.457 317.352 440.569 330.408 440.569 349.224C440.569 369.576 426.073 382.44 408.121 382.44C389.113 382.44 376.057 368.328 376.057 350.184C376.057 333.96 387.385 317.352 409.273 317.352ZM407.257 320.424C397.753 320.424 390.265 330.888 390.265 348.168C390.265 365.352 397.465 379.368 409.849 379.368C419.161 379.368 426.361 369.96 426.361 351.816C426.361 332.232 418.873 320.424 407.257 320.424ZM504.639 379.752L504.159 381.864C503.583 381.864 502.527 381.768 501.375 381.768C489.567 381.288 485.631 378.6 481.599 372.168C479.391 368.52 476.703 363.528 474.015 358.44C472.287 355.176 470.559 353.736 467.391 353.736H466.047V368.904C466.047 376.968 466.911 378.12 474.111 378.792V381H445.695V378.792C452.895 378.12 453.855 376.968 453.855 368.904V330.696C453.855 322.728 452.991 321.576 446.079 320.904V318.696H472.479C480.543 318.696 485.247 319.656 489.183 322.344C492.927 324.936 495.423 329.16 495.423 334.92C495.423 343.368 489.663 347.88 483.327 350.472C484.767 353.544 488.511 359.976 491.295 364.392C494.655 369.672 496.959 373.032 498.879 375.24C500.991 377.64 502.431 378.888 504.639 379.752ZM466.047 350.856H468.063C472.383 350.856 475.551 350.184 477.759 348.168C480.735 345.576 482.175 341.544 482.175 336.36C482.175 325.704 476.511 321.576 471.135 321.576C468.927 321.576 467.487 321.864 466.815 322.44C466.239 323.016 466.047 323.88 466.047 325.8V350.856ZM569.666 381H542.594V378.792C548.738 377.832 549.026 376.296 547.394 371.688C546.338 368.616 544.802 364.104 543.074 359.4H524.834C523.49 363.144 522.05 367.08 520.898 371.112C519.266 376.296 519.554 377.64 526.946 378.792V381H506.306L506.402 378.792C512.45 378.024 513.698 376.488 517.058 368.232L536.834 318.504L540.866 317.256C547.01 334.056 552.962 350.952 559.298 367.56C562.562 376.488 563.906 378.024 569.666 378.792V381ZM541.634 355.368L534.338 334.056H534.05C531.266 341.256 528.674 348.456 526.178 355.368H541.634Z" fill="white"/>
</svg>
