<svg width="24" height="24" viewBox="0 0 24 24" fill="none" xmlns="http://www.w3.org/2000/svg">
<g clip-path="url(#clip0_1_1377)">
<path d="M9.49052 23.1296C8.17277 23.1296 7.10065 22.0575 7.10065 20.7397C7.10065 19.422 8.17277 18.3502 9.49052 18.3502C10.8083 18.3502 11.8804 19.422 11.8804 20.7397C11.8804 22.0575 10.8083 23.1296 9.49052 23.1296ZM9.49052 19.8502C9.00002 19.8502 8.60065 20.2492 8.60065 20.7397C8.60065 21.2306 8.99965 21.6296 9.49052 21.6296C9.9814 21.6296 10.3804 21.2306 10.3804 20.7397C10.3804 20.2492 9.9814 19.8502 9.49052 19.8502Z" fill="#3B403D"/>
<path d="M17.7983 23.1296C16.4805 23.1296 15.4088 22.0575 15.4088 20.7397C15.4088 19.422 16.4805 18.3502 17.7983 18.3502C19.116 18.3502 20.1881 19.422 20.1881 20.7397C20.1881 22.0575 19.1156 23.1296 17.7983 23.1296ZM17.7983 19.8502C17.3078 19.8502 16.9088 20.2492 16.9088 20.7397C16.9088 21.2306 17.3078 21.6296 17.7983 21.6296C18.2891 21.6296 18.6881 21.2306 18.6881 20.7397C18.6881 20.2492 18.2888 19.8502 17.7983 19.8502Z" fill="#3B403D"/>
<path d="M19.548 16.4977H7.76588C6.6195 16.4977 5.64038 15.7174 5.38463 14.5999L2.93926 3.92098C2.90701 3.77998 2.80951 3.65923 2.67826 3.59848L0.64988 2.65836C0.18038 2.44086 -0.023995 1.88361 0.193505 1.41374C0.411005 0.944235 0.96863 0.73986 1.43813 0.95736L3.46651 1.89749C4.12013 2.20011 4.60651 2.80011 4.76701 3.50249L7.21238 14.1821C7.27163 14.4416 7.49925 14.6231 7.76588 14.6231H19.548C19.8135 14.6231 20.0408 14.4427 20.1015 14.184L22.0028 6.00411C22.0571 5.77161 21.9581 5.60248 21.8948 5.52261C21.831 5.44236 21.6885 5.30811 21.45 5.30811H7.57501C7.05713 5.30811 6.63751 4.88848 6.63751 4.37061C6.63751 3.85273 7.05713 3.43311 7.57501 3.43311H21.45C22.1996 3.43311 22.8964 3.76948 23.3629 4.35636C23.8294 4.94323 23.9989 5.69848 23.8294 6.42861L21.9278 14.6089C21.6686 15.7207 20.6903 16.4977 19.548 16.4977Z" fill="#3B403D"/>
</g>
<defs>
<clipPath id="clip0_1_1377">
<rect width="24" height="24" fill="white"/>
</clipPath>
</defs>
</svg>
