<svg width="20" height="20" viewBox="0 0 20 20" fill="none" xmlns="http://www.w3.org/2000/svg">
<path d="M12.2917 18.9583H8.54167V12.9167H7.74999C7.26666 12.9167 6.875 12.525 6.875 12.0417V10.4583C6.875 9.97499 7.26666 9.58333 7.74999 9.58333H8.54167V7.5C8.54167 5.775 9.94167 4.375 11.6667 4.375H13.9167C14.4 4.375 14.7917 4.76666 14.7917 5.24999V7.25001C14.7917 7.73334 14.4 8.125 13.9167 8.125L12.2917 8.125V9.58333H13.8583C14.125 9.58333 14.3667 9.7 14.5333 9.9C14.7 10.1 14.7667 10.3667 14.7167 10.625L14.4 12.2083C14.3167 12.6167 13.9583 12.9083 13.5417 12.9083L12.2917 12.9083L12.2917 18.9583ZM9.79167 17.7083H11.0417L11.0417 11.6667H13.2417L13.4083 10.8333H11.05V7.74999C11.05 7.26666 11.4417 6.875 11.925 6.875H13.55V5.625H11.6667C10.6333 5.625 9.79167 6.46667 9.79167 7.5V10.8333H8.125V11.6667H9.79167V17.7083Z" fill="#3B403D"/>
<path d="M12.4993 18.9584L7.49935 18.9584C2.97435 18.9584 1.04102 17.0251 1.04102 12.5001L1.04102 7.50008C1.04102 2.97508 2.97435 1.04175 7.49935 1.04175L12.4993 1.04175C17.0243 1.04175 18.9577 2.97508 18.9577 7.50008L18.9577 12.5001C18.9577 17.0251 17.0243 18.9584 12.4993 18.9584ZM7.49935 2.29175C3.65768 2.29175 2.29102 3.65841 2.29102 7.50008L2.29102 12.5001C2.29102 16.3417 3.65768 17.7084 7.49935 17.7084L12.4993 17.7084C16.341 17.7084 17.7077 16.3417 17.7077 12.5001L17.7077 7.50008C17.7077 3.65841 16.341 2.29175 12.4993 2.29175L7.49935 2.29175Z" fill="#3B403D"/>
</svg>
