<svg width="20" height="20" viewBox="0 0 20 20" fill="none" xmlns="http://www.w3.org/2000/svg">
<path d="M12.4993 18.9584H7.49935C2.97435 18.9584 1.04102 17.0251 1.04102 12.5001V7.50008C1.04102 2.97508 2.97435 1.04175 7.49935 1.04175H12.4993C17.0243 1.04175 18.9577 2.97508 18.9577 7.50008V12.5001C18.9577 17.0251 17.0243 18.9584 12.4993 18.9584ZM7.49935 2.29175C3.65768 2.29175 2.29102 3.65841 2.29102 7.50008V12.5001C2.29102 16.3417 3.65768 17.7084 7.49935 17.7084H12.4993C16.341 17.7084 17.7077 16.3417 17.7077 12.5001V7.50008C17.7077 3.65841 16.341 2.29175 12.4993 2.29175H7.49935Z" fill="#3B403D"/>
<path d="M10.0007 13.5416C8.05065 13.5416 6.45898 11.9499 6.45898 9.99992C6.45898 8.04992 8.05065 6.45825 10.0007 6.45825C11.9507 6.45825 13.5423 8.04992 13.5423 9.99992C13.5423 11.9499 11.9507 13.5416 10.0007 13.5416ZM10.0007 7.70825C8.73398 7.70825 7.70898 8.73325 7.70898 9.99992C7.70898 11.2666 8.73398 12.2916 10.0007 12.2916C11.2673 12.2916 12.2923 11.2666 12.2923 9.99992C12.2923 8.73325 11.2673 7.70825 10.0007 7.70825Z" fill="#3B403D"/>
<path d="M14.1673 6.24992C14.059 6.24992 13.9507 6.22492 13.8507 6.18325C13.7507 6.14159 13.659 6.08325 13.5757 6.00825C13.5007 5.92492 13.434 5.83325 13.3923 5.73325C13.3507 5.63325 13.334 5.52492 13.334 5.41659C13.334 5.30825 13.3507 5.19992 13.3923 5.09992C13.4423 4.99159 13.5007 4.90825 13.5757 4.82492C13.6173 4.79159 13.659 4.74992 13.7007 4.72492C13.7507 4.69159 13.8007 4.66659 13.8507 4.64992C13.9007 4.62492 13.9507 4.60825 14.009 4.59992C14.2757 4.54159 14.559 4.63325 14.759 4.82492C14.834 4.90825 14.8923 4.99159 14.934 5.09992C14.9757 5.19992 15.0007 5.30825 15.0007 5.41659C15.0007 5.52492 14.9757 5.63325 14.934 5.73325C14.8923 5.83325 14.834 5.92492 14.759 6.00825C14.6757 6.08325 14.584 6.14159 14.484 6.18325C14.384 6.22492 14.2757 6.24992 14.1673 6.24992Z" fill="#3B403D"/>
</svg>
